# xmcd CD database file generated by Grip 3.3.1
# 
# Track frame offsets:
#       150
#       13717
#       27036
#       41444
#       54878
#       68743
#       83331
#       98465
#       113170
#       127401
#       140095
#       154475
#       169679
#       181399
#       195963
# 
# Disc length: 2782 seconds
# 
# Revision: 2
# Processed by: cddbd v1.5.2PL0 Copyright (c) Steve Scherf et al.
# Submitted via: Grip 3.3.1
# 
DISCID=ba0adc0f
DTITLE=Various Artist - Simply Blues: Blues Divas
DYEAR=2005
DGENRE=Blues
TTITLE0=Bessie Smith - Nobody Knows You When You're Down And Out
TTITLE1=Alberta Hunter - Cake Walking Babies
TTITLE2=Ma Rainey - C. C. Rider
TTITLE3=Ida Cox - Hard Times Blues
TTITLE4=Sippie Wallace - I'm A Mighty Tight Woman
TTITLE5=Victoria Spivey - T. B. Blues
TTITLE6=Mamie Smith - Crazy Blues
TTITLE7=Trixie Smith - Freight Train Blues
TTITLE8=Clara Smith - Sobbin' Sister Blues
TTITLE9=Memphis Minnie - Me and My Chauffeur Blues
TTITLE10=Ethel Waters - Stormy Weather
TTITLE11=Lil Green - Romance In The Dark
TTITLE12=Big Maybelle - That's A Pretty Good Love
TTITLE13=Ruth Brown - 5-10-15 Hours
TTITLE14=Big Mama Thornton - Hound Dog
EXTD=
EXTT0=
EXTT1=
EXTT2=
EXTT3=
EXTT4=
EXTT5=
EXTT6=
EXTT7=
EXTT8=
EXTT9=
EXTT10=
EXTT11=
EXTT12=
EXTT13=
EXTT14=
PLAYORDER=
